<?xml version="1.0" encoding="utf-8"?>
<!-- Generator: Adobe Illustrator 17.0.0, SVG Export Plug-In . SVG Version: 6.00 Build 0)  -->
<!DOCTYPE svg PUBLIC "-//W3C//DTD SVG 1.1//EN" "http://www.w3.org/Graphics/SVG/1.1/DTD/svg11.dtd">
<svg version="1.1" id="Layer_1" xmlns="http://www.w3.org/2000/svg" xmlns:xlink="http://www.w3.org/1999/xlink" x="0px" y="0px"
	 width="612px" height="792px" viewBox="0 0 612 792" enable-background="new 0 0 612 792" xml:space="preserve">
<polygon fill-rule="evenodd" clip-rule="evenodd" fill="#180E26" points="-2,108 612,108 612,684 -2,684 -2,108 "/>
<polygon fill-rule="evenodd" clip-rule="evenodd" fill="#CD47E1" points="304.951,326.902 276.51,356.026 275.487,357.073 
	274.457,356.042 268.942,350.528 268.942,374.055 292.468,374.055 286.954,368.54 285.92,367.507 286.971,366.487 311.091,343.059 
	312.094,342.647 355.658,342.647 357.102,342.647 357.102,387.654 357.102,388.252 356.679,388.675 340.184,405.17 362.479,405.169 
	372.871,394.777 372.871,326.902 304.951,326.902 "/>
<linearGradient id="SVGID_1_" gradientUnits="userSpaceOnUse" x1="356.5664" y1="405.1696" x2="356.5664" y2="342.6405">
	<stop  offset="0" style="stop-color:#CD47E1"/>
	<stop  offset="1" style="stop-color:#760CA3"/>
</linearGradient>
<path fill-rule="evenodd" clip-rule="evenodd" fill="url(#SVGID_1_)" d="M357.102,342.641l0,45.013v0.598l-0.423,0.423
	l-16.495,16.495l22.295,0l10.392-10.392l0-35.734C373.85,348.528,365.481,342.641,357.102,342.641L357.102,342.641z"/>
<polygon fill-rule="evenodd" clip-rule="evenodd" fill="#15E1E3" points="304.973,405.164 333.415,376.041 334.438,374.994 
	335.468,376.024 340.983,381.539 340.983,358.012 317.457,358.012 322.971,363.526 324.003,364.56 322.954,365.579 298.834,389.007 
	297.83,389.419 254.267,389.419 252.823,389.419 252.823,387.975 252.823,344.412 252.823,343.815 253.246,343.391 269.741,326.897 
	247.446,326.897 237.054,337.289 237.054,405.164 304.973,405.164 "/>
<linearGradient id="SVGID_2_" gradientUnits="userSpaceOnUse" x1="253.4369" y1="389.4259" x2="253.4369" y2="326.8966">
	<stop  offset="0" style="stop-color:#0D87D0"/>
	<stop  offset="1" style="stop-color:#15E1E3"/>
</linearGradient>
<path fill-rule="evenodd" clip-rule="evenodd" fill="url(#SVGID_2_)" d="M252.902,389.426l0-45.014v-0.598l0.423-0.423
	l16.495-16.495l-22.296,0l-10.392,10.392l0,35.734C236.153,383.538,244.522,389.426,252.902,389.426L252.902,389.426z"/>
<path fill="#FFFFFF" d="M222.823,433.932h-7.169c-0.131-0.929-0.399-1.752-0.799-2.482c-0.407-0.722-0.922-1.344-1.56-1.859
	c-0.63-0.507-1.36-0.899-2.182-1.176c-0.822-0.269-1.713-0.407-2.674-0.407c-1.736,0-3.25,0.43-4.541,1.283
	c-1.283,0.861-2.281,2.097-2.996,3.734c-0.707,1.629-1.06,3.611-1.06,5.931c0,2.39,0.354,4.403,1.076,6.024
	c0.714,1.629,1.713,2.858,2.996,3.688c1.291,0.83,2.781,1.244,4.472,1.244c0.953,0,1.829-0.13,2.643-0.376
	c0.814-0.254,1.537-0.623,2.175-1.106c0.63-0.484,1.152-1.076,1.575-1.775c0.423-0.699,0.715-1.498,0.876-2.389l7.169,0.031
	c-0.184,1.537-0.645,3.02-1.383,4.441c-0.738,1.429-1.721,2.697-2.958,3.819c-1.245,1.114-2.712,1.997-4.426,2.651
	c-1.706,0.646-3.634,0.976-5.785,0.976c-2.989,0-5.663-0.676-8.013-2.036c-2.351-1.352-4.203-3.311-5.563-5.87
	c-1.36-2.566-2.036-5.67-2.036-9.32c0-3.657,0.684-6.761,2.059-9.328c1.375-2.566,3.243-4.525,5.601-5.87
	c2.359-1.352,5.01-2.021,7.952-2.021c1.944,0,3.749,0.269,5.409,0.815c1.667,0.545,3.143,1.344,4.433,2.381
	c1.283,1.045,2.336,2.321,3.15,3.827C222.078,430.267,222.601,431.988,222.823,433.932L222.823,433.932z"/>
<path fill="#FFFFFF" d="M238.573,456.214c-2.543,0-4.74-0.546-6.592-1.629c-1.844-1.083-3.273-2.604-4.28-4.549
	c-1.006-1.951-1.506-4.21-1.506-6.792c0-2.597,0.5-4.864,1.506-6.815s2.436-3.465,4.28-4.549c1.852-1.091,4.049-1.629,6.592-1.629
	c2.543,0,4.741,0.538,6.592,1.629c1.844,1.083,3.273,2.597,4.28,4.549c0.999,1.951,1.506,4.218,1.506,6.815
	c0,2.582-0.507,4.841-1.506,6.792c-1.007,1.944-2.435,3.465-4.28,4.549C243.314,455.668,241.116,456.214,238.573,456.214
	L238.573,456.214z M238.604,450.812c1.16,0,2.121-0.331,2.896-0.991c0.776-0.661,1.36-1.567,1.76-2.712
	c0.4-1.145,0.6-2.451,0.6-3.91c0-1.46-0.2-2.766-0.6-3.911c-0.399-1.145-0.983-2.051-1.76-2.72
	c-0.776-0.668-1.736-0.999-2.896-0.999c-1.168,0-2.144,0.33-2.935,0.999c-0.792,0.668-1.391,1.575-1.791,2.72
	c-0.392,1.145-0.591,2.451-0.591,3.911c0,1.46,0.2,2.766,0.591,3.91c0.4,1.145,0.999,2.052,1.791,2.712
	C236.46,450.482,237.436,450.812,238.604,450.812L238.604,450.812z"/>
<path fill="#FFFFFF" d="M264.188,456.13c-1.905,0-3.634-0.492-5.178-1.483c-1.544-0.983-2.766-2.443-3.665-4.364
	c-0.907-1.929-1.353-4.295-1.353-7.099c0-2.881,0.461-5.279,1.391-7.199c0.929-1.913,2.167-3.35,3.711-4.303
	c1.545-0.953,3.235-1.429,5.079-1.429c1.406,0,2.582,0.238,3.527,0.707c0.945,0.476,1.713,1.068,2.297,1.768
	c0.584,0.706,1.022,1.398,1.33,2.074h0.215v-12.608h6.953v33.53h-6.877v-4.026h-0.292c-0.323,0.699-0.784,1.391-1.383,2.067
	c-0.591,0.684-1.36,1.252-2.305,1.698C266.693,455.907,265.54,456.13,264.188,456.13L264.188,456.13z M266.401,450.582
	c1.122,0,2.074-0.307,2.858-0.922c0.776-0.622,1.376-1.483,1.798-2.597s0.63-2.42,0.63-3.911c0-1.498-0.208-2.796-0.622-3.895
	c-0.415-1.106-1.014-1.959-1.798-2.559c-0.792-0.599-1.744-0.899-2.866-0.899c-1.145,0-2.113,0.307-2.896,0.93
	c-0.792,0.622-1.383,1.49-1.79,2.589c-0.4,1.106-0.599,2.382-0.599,3.834c0,1.46,0.199,2.751,0.615,3.873
	c0.407,1.114,0.999,1.99,1.782,2.612C264.288,450.267,265.256,450.582,266.401,450.582L266.401,450.582z"/>
<path fill="#FFFFFF" d="M295.097,456.214c-2.589,0-4.81-0.53-6.677-1.583c-1.859-1.052-3.289-2.543-4.295-4.487
	c-1.007-1.936-1.506-4.226-1.506-6.876c0-2.589,0.5-4.864,1.506-6.815c1.006-1.952,2.42-3.473,4.249-4.564
	c1.829-1.091,3.972-1.637,6.438-1.637c1.659,0,3.212,0.261,4.648,0.792c1.429,0.53,2.689,1.321,3.765,2.382
	c1.068,1.061,1.906,2.39,2.512,3.988c0.599,1.598,0.899,3.465,0.899,5.609v1.913H285.4v-4.326h14.668
	c0-0.998-0.215-1.89-0.653-2.666c-0.438-0.776-1.038-1.383-1.806-1.821c-0.768-0.446-1.667-0.668-2.682-0.668
	c-1.052,0-1.99,0.246-2.804,0.73c-0.814,0.484-1.452,1.137-1.905,1.952c-0.461,0.807-0.691,1.713-0.707,2.704v4.111
	c0,1.244,0.231,2.32,0.699,3.227c0.461,0.906,1.122,1.606,1.967,2.09c0.853,0.492,1.867,0.738,3.035,0.738
	c0.769,0,1.483-0.108,2.128-0.323c0.638-0.223,1.191-0.545,1.652-0.983c0.454-0.438,0.807-0.976,1.045-1.606l6.454,0.422
	c-0.33,1.552-0.998,2.904-2.005,4.057c-1.014,1.152-2.313,2.044-3.895,2.681C299,455.891,297.171,456.214,295.097,456.214
	L295.097,456.214z"/>
<path fill="#FFFFFF" d="M328.925,431.835c-0.13-1.322-0.691-2.343-1.683-3.073c-0.991-0.73-2.343-1.099-4.041-1.099
	c-1.16,0-2.136,0.161-2.935,0.484c-0.792,0.323-1.406,0.769-1.821,1.329c-0.423,0.569-0.63,1.214-0.63,1.936
	c-0.023,0.599,0.107,1.122,0.384,1.567c0.277,0.453,0.661,0.838,1.153,1.16s1.06,0.599,1.706,0.83c0.638,0.239,1.329,0.438,2.06,0.6
	l3.012,0.722c1.459,0.331,2.804,0.761,4.026,1.306c1.222,0.546,2.282,1.222,3.181,2.013c0.891,0.799,1.59,1.736,2.082,2.82
	c0.5,1.076,0.753,2.32,0.76,3.719c-0.008,2.052-0.53,3.826-1.56,5.325c-1.03,1.498-2.52,2.666-4.456,3.488
	c-1.936,0.822-4.264,1.237-6.999,1.237c-2.705,0-5.056-0.415-7.061-1.245c-2.005-0.83-3.565-2.059-4.679-3.696
	c-1.122-1.629-1.706-3.649-1.759-6.062h6.853c0.077,1.122,0.407,2.059,0.976,2.804c0.576,0.753,1.344,1.314,2.313,1.69
	c0.961,0.376,2.059,0.561,3.281,0.561c1.198,0,2.243-0.169,3.135-0.522c0.892-0.346,1.575-0.829,2.067-1.452
	c0.491-0.623,0.738-1.337,0.738-2.152c0-0.753-0.223-1.383-0.661-1.897c-0.446-0.515-1.083-0.945-1.928-1.306
	c-0.853-0.361-1.882-0.691-3.104-0.983l-3.65-0.914c-2.827-0.691-5.063-1.767-6.7-3.228c-1.636-1.459-2.451-3.434-2.436-5.908
	c-0.015-2.028,0.53-3.803,1.629-5.325c1.091-1.513,2.605-2.697,4.525-3.55c1.921-0.853,4.103-1.275,6.546-1.275
	c2.489,0,4.664,0.422,6.523,1.275c1.859,0.853,3.312,2.036,4.349,3.55c1.037,1.521,1.568,3.273,1.606,5.271H328.925L328.925,431.835
	z"/>
<path fill="#FFFFFF" d="M344.529,465.103c-0.884,0-1.713-0.069-2.482-0.208c-0.768-0.13-1.406-0.3-1.905-0.499l1.567-5.217
	c1.237,0.376,2.274,0.477,3.119,0.3c0.845-0.177,1.513-0.838,2.005-1.975l0.407-1.06l-9.02-25.87h7.338l5.201,18.471h0.269
	l5.248-18.471l7.384,0.031l-9.773,27.836c-0.469,1.337-1.098,2.513-1.906,3.511c-0.799,0.999-1.813,1.775-3.035,2.32
	C347.726,464.827,346.25,465.103,344.529,465.103L344.529,465.103z"/>
<path fill="#FFFFFF" d="M373.632,441.185v14.537h-6.976v-25.148h6.646v4.441h0.299c0.553-1.468,1.49-2.628,2.797-3.481
	c1.306-0.86,2.897-1.283,4.764-1.283c1.744,0,3.266,0.377,4.564,1.145c1.298,0.76,2.313,1.852,3.035,3.265
	c0.715,1.414,1.076,3.097,1.076,5.048v16.012h-6.969v-14.768c0.008-1.536-0.384-2.742-1.183-3.611s-1.89-1.299-3.289-1.299
	c-0.937,0-1.767,0.2-2.481,0.607c-0.715,0.4-1.268,0.991-1.667,1.759C373.848,439.18,373.64,440.102,373.632,441.185
	L373.632,441.185z"/>
<path fill="#FFFFFF" d="M406.108,456.214c-2.574,0-4.787-0.546-6.638-1.644c-1.852-1.099-3.273-2.62-4.257-4.579
	c-0.991-1.951-1.483-4.203-1.483-6.746c0-2.574,0.5-4.833,1.498-6.784c0.999-1.944,2.42-3.465,4.264-4.564
	c1.844-1.099,4.042-1.644,6.585-1.644c2.19,0,4.111,0.392,5.762,1.191c1.644,0.799,2.95,1.921,3.911,3.358
	c0.96,1.445,1.491,3.135,1.591,5.071h-6.584c-0.185-1.252-0.677-2.267-1.468-3.035c-0.792-0.769-1.821-1.153-3.097-1.153
	c-1.083,0-2.028,0.292-2.827,0.876c-0.799,0.584-1.429,1.429-1.875,2.543c-0.446,1.114-0.668,2.467-0.668,4.049
	c0,1.598,0.215,2.966,0.661,4.088c0.438,1.13,1.068,1.982,1.875,2.574c0.807,0.592,1.752,0.884,2.835,0.884
	c0.792,0,1.514-0.161,2.152-0.492c0.638-0.331,1.168-0.807,1.583-1.437c0.423-0.623,0.699-1.383,0.83-2.267h6.584
	c-0.115,1.921-0.63,3.611-1.568,5.071c-0.93,1.46-2.22,2.597-3.856,3.411C410.281,455.807,408.344,456.214,406.108,456.214
	L406.108,456.214z"/>
</svg>
